<?xml version="1.0" encoding="UTF-8"?>
<svg version="1.1" xmlns="http://www.w3.org/2000/svg" width="1024" height="1024">
<path d="M0 0 C337.92 0 675.84 0 1024 0 C1024 337.92 1024 675.84 1024 1024 C686.08 1024 348.16 1024 0 1024 C0 686.08 0 348.16 0 0 Z " fill="#FDFDFD" transform="translate(0,0)"/>
<path d="M0 0 C0.79148437 -0.01933594 1.58296875 -0.03867188 2.3984375 -0.05859375 C5.5188356 0.63665284 6.62431358 1.97495739 8.625 4.4375 C10.43495228 14.24583088 7.62418525 25.26396082 6 35 C5.43819582 38.43507219 4.88471512 41.87141739 4.3359375 45.30859375 C4.12212433 46.64440491 4.12212433 46.64440491 3.9039917 48.00720215 C2.82751738 54.85511683 1.93605045 61.71646823 1.1015625 68.59765625 C0.85126364 70.6132234 0.60077704 72.62876725 0.35009766 74.64428711 C-0.01521698 77.58850813 -0.37164836 80.53240353 -0.70001221 83.48098755 C-1.0060244 86.22244219 -1.34375797 88.95837141 -1.6875 91.6953125 C-1.76874115 92.50819229 -1.8499823 93.32107208 -1.9336853 94.15858459 C-2.47631728 98.24017629 -3.11303225 100.67071454 -6.27734375 103.43310547 C-9.375 105.4375 -9.375 105.4375 -12.625 106.25 C-19.3832216 104.78571865 -23.94178057 99.72244512 -28.875 95.08984375 C-30.050625 93.99349609 -30.050625 93.99349609 -31.25 92.875 C-31.94867187 92.19308594 -32.64734375 91.51117188 -33.3671875 90.80859375 C-35.2440901 89.20313816 -35.2440901 89.20313816 -37.33178711 89.67626953 C-40.81724768 90.97483161 -42.77819031 94.06224968 -45.0625 96.875 C-46.13706216 98.16356048 -47.21258912 99.45131699 -48.2890625 100.73828125 C-49.07845215 101.68888428 -49.07845215 101.68888428 -49.88378906 102.65869141 C-52.50385833 105.784072 -55.24195901 108.79887915 -57.98779297 111.81347656 C-59.56236292 113.54424746 -61.13261911 115.27895401 -62.69824219 117.01782227 C-69.63975283 124.67767368 -76.8343298 132.05171485 -84.15551758 139.34838867 C-86.07425505 141.26172194 -87.98752754 143.18040504 -89.90039062 145.09960938 C-95.88792092 151.09077417 -101.87845033 156.99288771 -108.375 162.4375 C-109.54024938 163.44524383 -110.70432407 164.45434764 -111.8671875 165.46484375 C-112.99443358 166.43531193 -114.12203435 167.40536827 -115.25 168.375 C-115.79785156 168.84873047 -116.34570312 169.32246094 -116.91015625 169.81054688 C-117.47347656 170.29458984 -118.03679687 170.77863281 -118.6171875 171.27734375 C-119.16594449 171.76479631 -119.71470148 172.25224888 -120.28008747 172.75447273 C-122.375 174.4375 -122.375 174.4375 -124.88912487 175.88662529 C-129.345196 178.68719377 -131.96044233 180.80370607 -133.28443336 186.02162552 C-133.7436078 190.60199277 -133.62134873 195.17832524 -133.52270508 199.77392578 C-133.52156023 201.53874971 -133.52489273 203.30358134 -133.53234863 205.06838989 C-133.5388758 208.8580976 -133.51407334 212.64582733 -133.46467018 216.435215 C-133.38688855 222.42783724 -133.38019274 228.41927393 -133.38298035 234.412323 C-133.37910833 243.88970738 -133.32868393 253.36616859 -133.2578637 262.84326828 C-133.13139917 279.81945817 -133.06094665 296.79575319 -133.04222792 313.77239978 C-133.03351241 319.72889383 -132.99688421 325.68437653 -132.93771994 331.64057565 C-132.90533307 335.34469633 -132.89316239 339.04869434 -132.88599396 342.75294113 C-132.87827269 344.4694767 -132.86189166 346.18599865 -132.83617973 347.90235901 C-132.80210899 350.24756312 -132.79890372 352.59090688 -132.80305481 354.93630981 C-132.7877206 356.9035007 -132.7877206 356.9035007 -132.77207661 358.91043282 C-133.56428876 363.54482835 -135.08408835 365.1409678 -138.375 368.4375 C-141.02088481 369.7604424 -143.05155531 369.59384796 -146.01464844 369.63037109 C-147.19637634 369.64643402 -148.37810425 369.66249695 -149.59564209 369.67904663 C-155.00745172 369.72342801 -160.41911523 369.7650086 -165.83105469 369.78759766 C-168.68685033 369.80092275 -171.54192898 369.82874682 -174.39746094 369.86962891 C-178.50988803 369.92850328 -182.62154833 369.94626746 -186.734375 369.9609375 C-188.6471524 369.99494156 -188.6471524 369.99494156 -190.59857178 370.02963257 C-200.47478543 370.00606503 -200.47478543 370.00606503 -204.16503906 367.02978516 C-207.21304785 363.4544695 -207.49968824 361.86389208 -207.49525452 357.26168823 C-207.49731651 355.6168042 -207.49731651 355.6168042 -207.49942017 353.93869019 C-207.49582489 352.73028473 -207.49222961 351.52187927 -207.48852539 350.27685547 C-207.48867142 349.00859924 -207.48881744 347.74034302 -207.4889679 346.43365479 C-207.48925548 342.95039915 -207.483365 339.46717777 -207.47639394 335.98393011 C-207.47015397 332.34574398 -207.46955609 328.70755711 -207.46836853 325.06936646 C-207.46525712 318.17747823 -207.45704628 311.28560582 -207.44701904 304.39372456 C-207.43585202 296.54860593 -207.43034597 288.70348656 -207.42532361 280.85836196 C-207.41486352 264.71806537 -207.39726774 248.5777847 -207.375 232.4375 C-208.07584717 232.8814209 -208.77669434 233.3253418 -209.4987793 233.78271484 C-212.11520251 235.43722094 -214.73393098 237.08799709 -217.35424805 238.73632812 C-219.0393902 239.79794119 -220.72186394 240.8637861 -222.40429688 241.9296875 C-223.47099609 242.6 -224.53769531 243.2703125 -225.63671875 243.9609375 C-226.61600342 244.57888184 -227.59528809 245.19682617 -228.60424805 245.83349609 C-231.14847325 247.30636239 -233.61859067 248.42996969 -236.375 249.4375 C-236.37223462 250.01010905 -236.36946924 250.58271811 -236.36662006 251.17267895 C-236.30034296 265.11088693 -236.25090259 279.04906727 -236.21956348 292.9873991 C-236.20410005 299.72790374 -236.18302069 306.46830314 -236.14868164 313.20874023 C-236.11556637 319.71206582 -236.09815277 326.21532308 -236.09036827 332.71872902 C-236.08481975 335.20147232 -236.07398506 337.68420955 -236.05780983 340.16690636 C-236.03607341 343.64094415 -236.03303156 347.11452833 -236.03442383 350.58862305 C-236.023638 351.61792938 -236.01285217 352.64723572 -236.0017395 353.70773315 C-236.04079311 362.69707254 -236.04079311 362.69707254 -239.375 366.4375 C-243.07572474 369.30446511 -245.83533264 369.81790902 -250.46289062 369.84155273 C-251.66764038 369.85423691 -252.87239014 369.86692108 -254.11364746 369.87998962 C-255.4064563 369.87705399 -256.69926514 369.87411835 -258.03125 369.87109375 C-259.37976341 369.87565841 -260.7282745 369.88096483 -262.07678223 369.88697815 C-264.89780145 369.89589552 -267.71853737 369.89350157 -270.53955078 369.88354492 C-274.14779148 369.8720482 -277.75505451 369.89228276 -281.36316681 369.92146206 C-284.14624195 369.93984014 -286.92908337 369.93952868 -289.71220398 369.93382454 C-291.68695232 369.93359741 -293.66167874 369.950477 -295.63635254 369.96763611 C-296.84110229 369.95825516 -298.04585205 369.94887421 -299.28710938 369.93920898 C-300.34458374 369.93904282 -301.40205811 369.93887665 -302.49157715 369.93870544 C-306.76157496 369.19648127 -309.15544813 367.11476723 -311.67330933 363.6519165 C-312.68833741 360.4486604 -312.63638055 357.33105347 -312.60205078 354.00683594 C-312.60234283 353.26498047 -312.60263489 352.523125 -312.60293579 351.75878906 C-312.60154533 349.31303099 -312.58599765 346.86757968 -312.5703125 344.421875 C-312.56658136 342.72365485 -312.56373486 341.02543255 -312.56173706 339.32720947 C-312.55410857 334.86212193 -312.53446681 330.39716494 -312.5123291 325.93212891 C-312.49185379 321.3740414 -312.48273174 316.81593276 -312.47265625 312.2578125 C-312.45122018 303.31765104 -312.41709368 294.37758639 -312.375 285.4375 C-312.94420166 285.63907715 -313.51340332 285.8406543 -314.09985352 286.04833984 C-316.7116414 286.97189477 -319.3245571 287.89221822 -321.9375 288.8125 C-322.83275391 289.12960937 -323.72800781 289.44671875 -324.65039062 289.7734375 C-329.52498765 291.48758151 -334.38813845 293.08304378 -339.375 294.4375 C-339.36500725 295.67658615 -339.36500725 295.67658615 -339.35481262 296.94070435 C-339.2946173 304.73836018 -339.24898286 312.53593759 -339.21956348 320.33377266 C-339.20393003 324.34240789 -339.18273452 328.35085057 -339.14868164 332.359375 C-339.11600488 336.23028319 -339.09812953 340.10100657 -339.09036827 343.97204208 C-339.08483963 345.44638858 -339.07404349 346.92072534 -339.05780983 348.39499283 C-339.03592413 350.46553386 -339.03303759 352.53531831 -339.03442383 354.60595703 C-339.02443108 356.37134323 -339.02443108 356.37134323 -339.01423645 358.1723938 C-339.52608346 362.80488743 -341.08063657 366.14313657 -344.375 369.4375 C-344.0799042 374.56006043 -342.10454732 378.63912825 -339.8125 383.125 C-339.45679932 383.82689453 -339.10109863 384.52878906 -338.73461914 385.25195312 C-335.51891056 391.43856606 -331.74763376 397.0029409 -327.375 402.4375 C-326.84648437 403.12972656 -326.31796875 403.82195312 -325.7734375 404.53515625 C-315.30248818 417.50778558 -298.52401981 427.46050258 -282.375 431.4375 C-281.6221875 431.62828125 -280.869375 431.8190625 -280.09375 432.015625 C-272.99544718 433.54920894 -265.87093182 433.79179069 -258.6315918 433.92041016 C-252.25055914 434.11459099 -246.47513383 434.91190835 -241.3515625 439.0859375 C-237.30611811 444.25381732 -234.78335267 448.33736517 -235.00390625 455.1875 C-236.01022073 461.28894359 -238.69081161 466.45033325 -243.62890625 470.203125 C-249.69921374 473.74909823 -256.49442442 473.1487558 -263.3125 473 C-264.34987305 472.98794525 -264.34987305 472.98794525 -265.40820312 472.97564697 C-276.16372199 472.8432589 -286.16178504 471.96650108 -296.375 468.4375 C-297.62410156 468.01339844 -298.87320313 467.58929687 -300.16015625 467.15234375 C-331.5180973 455.82987708 -358.99532036 431.7824382 -373.27734375 401.52587891 C-377.01720506 393.08749368 -379.8768969 384.3153741 -382.375 375.4375 C-382.55336899 374.85977844 -382.73173798 374.28205688 -382.91551208 373.68682861 C-383.53081005 370.67476394 -383.49421906 367.81579209 -383.48852539 364.74121094 C-383.48867142 364.07738403 -383.48881744 363.41355713 -383.4889679 362.72961426 C-383.48827332 360.5436675 -383.48050231 358.35780681 -383.47265625 356.171875 C-383.47079045 354.65301561 -383.46936731 353.13415562 -383.46836853 351.61529541 C-383.4645561 347.62372161 -383.4547367 343.63218438 -383.44366455 339.640625 C-383.43342303 335.5651092 -383.42886504 331.48958747 -383.42382812 327.4140625 C-383.41311327 319.42185825 -383.39605216 311.42968368 -383.375 303.4375 C-384.27025894 303.57947311 -385.16551788 303.72144623 -386.08790588 303.86772156 C-402.79253832 306.50104298 -419.42608898 309.11574794 -436.3125 310.25 C-437.11356171 310.30754456 -437.91462341 310.36508911 -438.73995972 310.42437744 C-449.29979142 311.18016256 -459.8488152 311.72318588 -470.4375 311.8125 C-471.47704834 311.82643799 -472.51659668 311.84037598 -473.58764648 311.85473633 C-478.96196611 311.81971707 -482.71269559 311.40850297 -487.375 308.4375 C-487.99375 308.045625 -488.6125 307.65375 -489.25 307.25 C-490.76818828 304.80403 -490.88322127 302.40135308 -491.06640625 299.5703125 C-489.90395538 295.98444711 -487.59477906 294.14075814 -484.375 292.4375 C-480.4411303 291.4111408 -476.4735098 291.00337929 -472.4375 290.5625 C-448.54598462 287.47419215 -425.36893362 281.55060855 -402.375 274.4375 C-400.80228133 273.96288506 -399.22937382 273.4888953 -397.65625 273.015625 C-348.42496565 258.02828043 -300.75255578 236.86119392 -256.23730469 211.08642578 C-253.42125841 209.4641487 -250.59151756 207.86853267 -247.7578125 206.27734375 C-218.36958908 189.63439753 -190.07239423 170.36611945 -164.06298828 148.82568359 C-161.8386906 146.99644486 -159.57680063 145.2168598 -157.3125 143.4375 C-146.45126741 134.76309276 -136.14960078 125.42135967 -125.99414062 115.93896484 C-124.31398178 114.38091646 -122.61996381 112.83925734 -120.921875 111.30078125 C-115.79396495 106.64400203 -110.8147915 102.01381474 -106.37109375 96.68359375 C-103.55730616 93.51739441 -100.52106934 90.59214291 -97.5 87.625 C-92.5002568 82.69343214 -87.90330865 77.63642863 -83.546875 72.1171875 C-80.31838765 68.13383799 -76.83389187 64.40640067 -73.34375 60.65234375 C-71.34828212 58.60070879 -71.34828212 58.60070879 -70.375 56.4375 C-70.90222656 56.21707031 -71.42945313 55.99664062 -71.97265625 55.76953125 C-75.25384783 53.95020389 -77.98184768 51.56097851 -80.8125 49.125 C-81.37259766 48.65126953 -81.93269531 48.17753906 -82.50976562 47.68945312 C-85.95713906 44.74892806 -89.20879833 41.68414963 -92.375 38.4375 C-92.705 38.1075 -93.035 37.7775 -93.375 37.4375 C-93.6484375 35.546875 -93.6484375 35.546875 -93.75 33.1875 C-93.79898437 32.41921875 -93.84796875 31.6509375 -93.8984375 30.859375 C-93.07406943 27.04513469 -91.47196465 25.79196257 -88.375 23.4375 C-84.88811651 22.09627595 -81.32534983 21.26791113 -77.6875 20.4375 C-75.6181909 19.93221121 -73.5491835 19.42568537 -71.48046875 18.91796875 C-70.45228027 18.67095215 -69.4240918 18.42393555 -68.36474609 18.16943359 C-64.05245929 17.11372268 -59.77532893 15.94538179 -55.5 14.75 C-54.80688721 14.55986328 -54.11377441 14.36972656 -53.3996582 14.17382812 C-49.92134952 13.20709326 -46.49696711 12.15215224 -43.08203125 10.98046875 C-37.77172277 9.18547504 -32.36866227 7.81411143 -26.9375 6.4375 C-21.24968704 4.99010426 -15.5915969 3.52720776 -9.98828125 1.77734375 C-6.61274592 0.75054707 -3.55604898 0.00590706 0 0 Z " fill="#FD9201" transform="translate(772.375,212.5625)"/>
<path d="M0 0 C3.54749618 0.40160334 5.37616795 1.33749616 8.04247904 3.6946938 C10.55683992 7.0213288 10.13445414 10.83487519 10.07440186 14.85067749 C10.0837618 15.80964546 10.09312174 16.76861343 10.10276532 17.75664103 C10.1267152 20.97292481 10.10773459 24.18751191 10.08886719 27.40380859 C10.09699662 29.7084401 10.10767926 32.01306382 10.12072754 34.31767273 C10.14811394 40.5802375 10.13746066 46.84221013 10.11845303 53.10478544 C10.10327667 59.65586172 10.11734668 66.20688684 10.12677002 72.75796509 C10.13959182 84.46742611 10.11972568 96.17663783 10.089214 107.88605566 C10.0624199 118.49708748 10.06705297 129.10772534 10.09472656 139.71875 C10.12685823 152.04490091 10.13877497 164.37080065 10.12105298 176.69698775 C10.11169833 183.22031272 10.11045288 189.74336649 10.13027191 196.26667404 C10.14760791 202.40151526 10.13557484 208.535613 10.10090637 214.67037392 C10.09297401 216.92178043 10.09524945 219.17324952 10.10848236 221.42463112 C10.12488628 224.49904974 10.10431073 227.5710882 10.07440186 230.64535522 C10.08778619 231.53592759 10.10117052 232.42649995 10.11496043 233.34405935 C10.00777442 239.02620716 8.73507153 241.97082113 4.79352689 246.08815157 C1.6862808 248.78800448 -0.98879636 248.56468052 -5.0078125 248.69140625 C-6.89306641 248.75424805 -6.89306641 248.75424805 -8.81640625 248.81835938 C-10.13511719 248.85767578 -11.45382812 248.89699219 -12.8125 248.9375 C-14.15235751 248.98069512 -15.49220156 249.02430973 -16.83203125 249.06835938 C-20.11707815 249.17470981 -23.40220281 249.27673808 -26.6875 249.375 C-26.85560181 250.80839722 -26.85560181 250.80839722 -27.02709961 252.27075195 C-33.14834289 303.23256023 -57.40965372 349.72859952 -97.84375 381.92773438 C-98.4521875 382.40533203 -99.060625 382.88292969 -99.6875 383.375 C-100.30367187 383.86033203 -100.91984375 384.34566406 -101.5546875 384.84570312 C-128.53729257 405.74345542 -166.92191197 423.375 -201.6875 423.375 C-201.6875 435.255 -201.6875 447.135 -201.6875 459.375 C-196.7271875 459.32859375 -191.766875 459.2821875 -186.65625 459.234375 C-183.50258307 459.21392241 -180.3489986 459.19466575 -177.1953125 459.1796875 C-172.19611502 459.15583108 -167.19721226 459.12769346 -162.19824219 459.07324219 C-158.16521487 459.02959034 -154.13250386 459.00582237 -150.09925842 458.99549103 C-148.56514003 458.98813415 -147.03103778 458.97376808 -145.49705505 458.95207977 C-128.51873151 458.72170754 -128.51873151 458.72170754 -122.18444824 464.82269287 C-117.73049191 469.86217465 -116.09285185 474.00111561 -116.25 480.640625 C-117.04234993 485.59281207 -119.26624435 489.7367244 -122.6875 493.375 C-130.47577748 498.77221917 -139.02812528 497.93189519 -148.11572266 497.87670898 C-149.89040047 497.88049546 -151.66507532 497.8859982 -153.43974304 497.89308167 C-158.24336442 497.90700868 -163.04662652 497.89588677 -167.85022783 497.87937045 C-172.88293247 497.86549189 -177.91561686 497.87198306 -182.94833374 497.87550354 C-191.39660413 497.87820294 -199.84473222 497.86475153 -208.29296875 497.84155273 C-218.05651148 497.8149275 -227.81981659 497.81320239 -237.5833832 497.8249411 C-246.98388685 497.83572318 -256.38430465 497.82952953 -265.78480148 497.81538582 C-269.78228157 497.8096315 -273.77969872 497.80970431 -277.77717972 497.81445122 C-282.48373618 497.81922654 -287.19003267 497.80909628 -291.89653969 497.78749657 C-293.62267874 497.78193674 -295.34884281 497.78145602 -297.0749836 497.78644943 C-299.43305863 497.79241507 -301.79034215 497.77987344 -304.14834595 497.76268005 C-305.46718088 497.76025016 -306.78601582 497.75782026 -308.14481544 497.75531673 C-313.57493573 497.17237869 -317.50289963 495.17413617 -320.9375 490.9375 C-321.41703125 490.36128906 -321.8965625 489.78507812 -322.390625 489.19140625 C-326.03693697 484.08437292 -326.59655573 479.5528685 -325.6875 473.375 C-323.23447244 467.43502418 -319.25882525 463.12492113 -313.46833801 460.28762817 C-310.08093092 459.17593338 -307.25982396 459.13509973 -303.6940918 459.14794922 C-303.01061172 459.14765717 -302.32713165 459.14736511 -301.62294006 459.14706421 C-299.37740109 459.14845083 -297.13219933 459.16398013 -294.88671875 459.1796875 C-293.32444948 459.18342001 -291.76217785 459.18626586 -290.1999054 459.18826294 C-286.09814941 459.19588065 -281.9965362 459.21551304 -277.89483643 459.2376709 C-272.96804505 459.26177679 -268.04120579 459.27091919 -263.11437225 459.28257751 C-255.63864902 459.30193862 -248.16323876 459.34027399 -240.6875 459.375 C-240.6875 447.495 -240.6875 435.615 -240.6875 423.375 C-245.3075 423.045 -249.9275 422.715 -254.6875 422.375 C-258.77590757 421.61808149 -262.72773494 420.81292708 -266.75 419.8125 C-267.81855225 419.55001465 -268.88710449 419.2875293 -269.98803711 419.01708984 C-311.09566106 408.5154313 -348.2897118 384.54590491 -374.6875 351.375 C-375.863125 349.95960938 -375.863125 349.95960938 -377.0625 348.515625 C-393.01735191 328.7766095 -404.1167595 304.81717942 -410.6875 280.375 C-410.87151367 279.70049805 -411.05552734 279.02599609 -411.24511719 278.33105469 C-415.28314659 263.25715435 -416.82566892 248.33540921 -417.125 232.75 C-417.15948242 231.74251709 -417.19396484 230.73503418 -417.22949219 229.69702148 C-417.26785039 222.94202944 -416.08461988 218.57181195 -411.6875 213.375 C-407.64127594 209.35129667 -403.37146795 207.0152216 -397.625 206.75 C-390.69996675 207.23314185 -385.84617801 209.78454033 -381.25 214.9375 C-378.31442184 218.52898391 -377.57319244 221.47961297 -377.51171875 226.07421875 C-377.26924871 236.99555041 -376.60850198 247.65058291 -374.8125 258.4375 C-374.57019653 259.92479614 -374.57019653 259.92479614 -374.32299805 261.44213867 C-373.37093417 266.82668645 -371.94152061 271.36540969 -369.6875 276.375 C-369.33308635 277.68457336 -369.00578363 279.0017252 -368.703125 280.32421875 C-367.72559416 284.50286138 -366.19584716 288.28166723 -364.4375 292.1875 C-364.12594971 292.88472168 -363.81439941 293.58194336 -363.4934082 294.30029297 C-349.10337914 326.10134062 -324.77568097 351.58680273 -293.6875 367.375 C-293.07197266 367.69162598 -292.45644531 368.00825195 -291.82226562 368.33447266 C-259.8325973 384.60976884 -221.76450168 389.42847485 -186.6875 381.375 C-185.96272461 381.21402832 -185.23794922 381.05305664 -184.49121094 380.88720703 C-160.23805394 375.32852442 -137.28957559 363.93321697 -118.6875 347.375 C-117.38039063 346.24771484 -117.38039063 346.24771484 -116.046875 345.09765625 C-91.90619413 323.95649112 -75.78688813 294.14618051 -69.22371101 262.91188908 C-68.88637818 261.31592042 -68.53279967 259.72321377 -68.1560955 258.13607693 C-66.24057729 249.23691614 -66.46826595 240.37940435 -66.55908203 231.33422852 C-66.56944588 229.52944497 -66.57873943 227.72465501 -66.58705139 225.91986084 C-66.60596075 222.05236546 -66.63008112 218.18494998 -66.65762711 214.31750679 C-66.69887156 208.19303475 -66.71394574 202.0686712 -66.72286987 195.94407654 C-66.72448533 194.90736409 -66.72610079 193.87065165 -66.7277652 192.80252367 C-66.73100199 190.68373436 -66.73417173 188.56494494 -66.73727584 186.44615543 C-66.75904474 172.20261113 -66.79726136 157.95969593 -66.91015625 143.71655273 C-66.98628799 134.08676954 -67.01969466 124.45787036 -67.00425422 114.82778496 C-66.99779445 109.74060585 -67.01284194 104.65556819 -67.08032608 99.56878853 C-67.14349124 94.78333283 -67.15009293 90.00104125 -67.11460686 85.21533203 C-67.11150168 83.4674241 -67.12865704 81.71933439 -67.16842461 79.97187614 C-67.34525158 71.73498289 -67.34752221 65.30114099 -61.49802482 59.03485769 C-59.00233333 56.65051689 -56.40232884 54.5097402 -53.6875 52.375 C-52.29799958 51.16108532 -50.9123139 49.9427432 -49.53515625 48.71484375 C-48.91141113 48.1822998 -48.28766602 47.64975586 -47.64501953 47.10107422 C-43.63158743 43.56216614 -39.89808812 39.72865558 -36.125 35.9375 C-35.31353516 35.12990234 -34.50207031 34.32230469 -33.66601562 33.49023438 C-29.37189462 29.18918178 -25.23025621 24.81583889 -21.2668457 20.20825195 C-18.92010746 17.48423627 -16.49456976 14.83520385 -14.0625 12.1875 C-13.61132812 11.69314453 -13.16015625 11.19878906 -12.6953125 10.68945312 C-9.77165304 7.50115207 -6.76497189 4.41467837 -3.6875 1.375 C-2.6875 0.375 -2.6875 0.375 0 0 Z " fill="#373940" transform="translate(735.6875,333.625)"/>
<path d="M0 0 C1.05670898 0.29801514 1.05670898 0.29801514 2.13476562 0.60205078 C17.246065 4.96862755 31.5399639 11.2881974 44 21 C44.89074219 21.68835938 45.78148437 22.37671875 46.69921875 23.0859375 C69.45915719 41.17961241 86.80002766 66.58128566 94 95 C94.29237404 97.93489526 94.41947266 99.42144604 92.66162109 101.84594727 C92.03852051 102.41369873 91.41541992 102.9814502 90.7734375 103.56640625 C90.07863281 104.2104541 89.38382813 104.85450195 88.66796875 105.51806641 C87.91128906 106.19272949 87.15460938 106.86739258 86.375 107.5625 C85.21291016 108.62476807 85.21291016 108.62476807 84.02734375 109.70849609 C81.7004374 111.82382208 79.35526959 113.91633549 77 116 C76.37125977 116.55703613 75.74251953 117.11407227 75.09472656 117.68798828 C71.71079898 120.66717159 68.28278949 123.58935642 64.82177734 126.47851562 C63.56144169 127.53110364 62.30414634 128.58733881 61.04931641 129.64648438 C50.04939589 138.92907306 38.69696808 147.61561328 27 156 C26.19691406 156.5775 25.39382813 157.155 24.56640625 157.75 C-24.42019339 192.86359463 -78.43161646 221.69809692 -134.5625 243.5625 C-135.22802887 243.82274963 -135.89355774 244.08299927 -136.57925415 244.35113525 C-138.4893861 245.09555651 -140.40225541 245.83238867 -142.31640625 246.56640625 C-143.41412354 246.98865479 -144.51184082 247.41090332 -145.64282227 247.84594727 C-149.3984097 249.13695605 -153.14320654 250.0558198 -157 251 C-157.09389766 232.57018772 -157.16419987 214.14043845 -157.20724869 195.71043777 C-157.22777804 187.15095216 -157.25571174 178.5916161 -157.30175781 170.03222656 C-157.34192336 162.56232171 -157.36750254 155.0925253 -157.37635398 147.62251544 C-157.38151908 143.67581152 -157.39345141 139.72941751 -157.42292023 135.78281403 C-157.58673324 112.93336566 -156.234548 92.16367536 -147 71 C-146.24783203 69.24816406 -146.24783203 69.24816406 -145.48046875 67.4609375 C-131.82101634 38.01501333 -104.15337621 15.41630699 -74.37109375 3.5546875 C-51.25285377 -4.63353323 -23.74341305 -6.75107774 0 0 Z " fill="#383A41" transform="translate(546,212)"/>
<path d="M0 0 C3.54749618 0.40160334 5.37616795 1.33749616 8.04247904 3.6946938 C10.55683992 7.0213288 10.13445414 10.83487519 10.07440186 14.85067749 C10.08844177 16.28912944 10.08844177 16.28912944 10.10276532 17.75664103 C10.1267152 20.97292481 10.10773459 24.18751191 10.08886719 27.40380859 C10.09699662 29.7084401 10.10767926 32.01306382 10.12072754 34.31767273 C10.14811394 40.5802375 10.13746066 46.84221013 10.11845303 53.10478544 C10.10327667 59.65586172 10.11734668 66.20688684 10.12677002 72.75796509 C10.13959182 84.46742611 10.11972568 96.17663783 10.089214 107.88605566 C10.0624199 118.49708748 10.06705297 129.10772534 10.09472656 139.71875 C10.12685823 152.04490091 10.13877497 164.37080065 10.12105298 176.69698775 C10.11169833 183.22031272 10.11045288 189.74336649 10.13027191 196.26667404 C10.14760791 202.40151526 10.13557484 208.535613 10.10090637 214.67037392 C10.09297401 216.92178043 10.09524945 219.17324952 10.10848236 221.42463112 C10.12488628 224.49904974 10.10431073 227.5710882 10.07440186 230.64535522 C10.09447835 231.98121377 10.09447835 231.98121377 10.11496043 233.34405935 C10.00777442 239.02620716 8.73507153 241.97082113 4.79352689 246.08815157 C-4.57688771 254.23000462 -34.74339481 249.42920894 -47.20703125 249.40234375 C-49.01159644 249.40014208 -50.81616189 249.39814718 -52.62072754 249.3963623 C-56.97632508 249.39161499 -61.33190948 249.38410504 -65.6875 249.375 C-65.96819223 225.46160039 -66.17961227 201.54844871 -66.30924606 177.63373184 C-66.37104573 166.52886031 -66.45525283 155.42501407 -66.59277344 144.32080078 C-66.71262173 134.63891291 -66.78985475 124.95776772 -66.81656194 115.27515864 C-66.83216753 110.1508389 -66.86866701 105.0286432 -66.95626068 99.90500641 C-67.03816418 95.07473916 -67.06275338 90.24745495 -67.04479218 85.41655922 C-67.04807405 83.65084636 -67.0716886 81.88502629 -67.1179657 80.11991692 C-67.3241801 71.84338908 -67.38280318 65.32827784 -61.5020535 59.02305007 C-59.00604921 56.64017621 -56.40518963 54.5048851 -53.6875 52.375 C-52.29773908 51.16138356 -50.91197687 49.9431211 -49.53515625 48.71484375 C-48.91141113 48.1822998 -48.28766602 47.64975586 -47.64501953 47.10107422 C-43.63158743 43.56216614 -39.89808812 39.72865558 -36.125 35.9375 C-35.31353516 35.12990234 -34.50207031 34.32230469 -33.66601562 33.49023438 C-29.37189462 29.18918178 -25.23025621 24.81583889 -21.2668457 20.20825195 C-18.92010746 17.48423627 -16.49456976 14.83520385 -14.0625 12.1875 C-13.61132812 11.69314453 -13.16015625 11.19878906 -12.6953125 10.68945312 C-9.77165304 7.50115207 -6.76497189 4.41467837 -3.6875 1.375 C-2.6875 0.375 -2.6875 0.375 0 0 Z " fill="#FD9201" transform="translate(735.6875,333.625)"/>
<path d="M0 0 C12.21 0 24.42 0 37 0 C39.31 4.95 41.62 9.9 44 15 C56.2339024 36.17406184 74.02015501 52.53245183 97.90625 59.484375 C98.5971875 59.65453125 99.288125 59.8246875 100 60 C100.7528125 60.19078125 101.505625 60.3815625 102.28125 60.578125 C109.37955282 62.11170894 116.50406818 62.35429069 123.7434082 62.48291016 C130.12444086 62.67709099 135.89986617 63.47440835 141.0234375 67.6484375 C145.06888189 72.81631732 147.59164733 76.89986517 147.37109375 83.75 C146.36477927 89.85144359 143.68418839 95.01283325 138.74609375 98.765625 C132.67578626 102.31159823 125.88057558 101.7112558 119.0625 101.5625 C118.02512695 101.55044525 118.02512695 101.55044525 116.96679688 101.53814697 C106.21127801 101.4057589 96.21321496 100.52900108 86 97 C84.75089844 96.57589844 83.50179687 96.15179687 82.21484375 95.71484375 C50.8569027 84.39237708 23.37967964 60.3449382 9.09765625 30.08837891 C0 9.5610059 0 9.5610059 0 0 Z " fill="#373940" transform="translate(390,584)"/>
<path d="M0 0 C0.66 0.33 1.32 0.66 2 1 C1.25745799 1.45978792 1.25745799 1.45978792 0.49991512 1.92886448 C-3.13434155 4.73276473 -4.79443536 6.91591814 -5.66166496 11.48940849 C-5.9977193 16.03384918 -5.93212896 20.58107309 -5.88647461 25.13452148 C-5.89436781 26.88924228 -5.90533183 28.64395155 -5.91912842 30.39863586 C-5.947818 35.15046495 -5.93363882 39.90130728 -5.91168666 44.65313601 C-5.89604086 49.62333114 -5.91992396 54.59333358 -5.93959045 59.56349182 C-5.97081664 68.96985366 -5.96656053 78.37585049 -5.94951588 87.78223521 C-5.93183779 98.49327208 -5.9537771 109.2041136 -5.97902286 119.91512191 C-6.03005707 141.94348194 -6.03140905 163.97161337 -6 186 C-6.66 186 -7.32 186 -8 186 C-8.18690248 162.78235173 -8.32796552 139.56482755 -8.41449738 116.34657955 C-8.45574414 105.5658395 -8.51197513 94.78556694 -8.60351562 84.00512695 C-8.68326689 74.60858761 -8.73486894 65.21238682 -8.75270796 55.81551844 C-8.76313562 50.83997948 -8.78763062 45.86540903 -8.84584045 40.89018059 C-8.90020453 36.20563098 -8.91688053 31.52244725 -8.90486145 26.83761215 C-8.90705964 25.11987823 -8.9229387 23.40209794 -8.9536438 21.68463707 C-9.17492298 8.66741791 -9.17492298 8.66741791 -6.15794373 4.38580513 C-4.18166003 2.63462134 -2.3197983 1.24982712 0 0 Z " fill="#F9E5BF" transform="translate(647,388)"/>
<path d="M0 0 C0.33 0 0.66 0 1 0 C1 46.53 1 93.06 1 141 C2.98 140.01 2.98 140.01 5 139 C5.99 139.33 6.98 139.66 8 140 C5.03 140.99 2.06 141.98 -1 143 C-1.02338516 125.53635392 -1.04100676 108.07271274 -1.05181217 90.60905457 C-1.0569632 82.49994381 -1.06398314 74.39084279 -1.07543945 66.28173828 C-1.08542277 59.21187775 -1.09186211 52.14202429 -1.09408849 45.07215691 C-1.09538941 41.33052573 -1.09843598 37.58891473 -1.10573006 33.84729004 C-1.11381645 29.66511142 -1.11398879 25.48296766 -1.11352539 21.30078125 C-1.11712067 20.06719376 -1.12071594 18.83360626 -1.12442017 17.56263733 C-1.11728595 11.6104254 -0.91532095 5.88425872 0 0 Z " fill="#2D2F34" transform="translate(390,320)"/>
<path d="M0 0 C11.88 0.33 23.76 0.66 36 1 C36 1.66 36 2.32 36 3 C35.01080566 3.01458252 34.02161133 3.02916504 33.00244141 3.04418945 C29.33817081 3.1020897 25.67452015 3.17932152 22.01074219 3.26245117 C20.42393035 3.2957398 18.83699897 3.32375947 17.25 3.34643555 C14.97083516 3.37991078 12.69276959 3.4322186 10.4140625 3.48828125 C9.70255035 3.49467117 8.99103821 3.5010611 8.25796509 3.50764465 C6.0399544 3.54009648 6.0399544 3.54009648 3 4 C2.34 4.99 1.68 5.98 1 7 C0.67 4.69 0.34 2.38 0 0 Z " fill="#303B52" transform="translate(390,584)"/>
<path d="M0 0 C2.75492863 2.44428386 4.21626862 5.07588426 5.9375 8.3125 C12.50002826 19.73462196 21.2732747 29.35839481 32 37 C31.01 37.495 31.01 37.495 30 38 C17.27562332 28.153473 6.52149296 16.96107208 0 2 C0 1.34 0 0.68 0 0 Z " fill="#2B2C32" transform="translate(430,594)"/>
<path d="M0 0 C0.66 0.33 1.32 0.66 2 1 C1.50628906 1.28488281 1.01257813 1.56976563 0.50390625 1.86328125 C-2.62380252 4.19804977 -4.65696647 6.24663087 -5.4296875 10.19628906 C-6.00645555 15.78700668 -6.03927124 21.38421229 -6 27 C-6.33 27 -6.66 27 -7 27 C-7.20453151 23.62590441 -7.32801449 20.25341008 -7.4375 16.875 C-7.49615234 15.92367188 -7.55480469 14.97234375 -7.61523438 13.9921875 C-7.78524894 6.99730235 -7.78524894 6.99730235 -5.41064453 3.98144531 C-3.67196576 2.49114922 -1.95010546 1.19663421 0 0 Z " fill="#FDFBF1" transform="translate(647,388)"/>
<path d="M0 0 C3.21524305 1.40844718 5.32183868 3.10344786 7.75 5.625 C8.67039062 6.57246094 8.67039062 6.57246094 9.609375 7.5390625 C10.29773438 8.26222656 10.29773438 8.26222656 11 9 C10.34 9.66 9.68 10.32 9 11 C7.49403892 9.54782324 5.99537896 8.08807139 4.5 6.625 C3.6646875 5.81289063 2.829375 5.00078125 1.96875 4.1640625 C0 2 0 2 0 0 Z " fill="#3F4046" transform="translate(370,694)"/>
<path d="M0 0 C0.33 0.99 0.66 1.98 1 3 C-1.64 5.64 -4.28 8.28 -7 11 C-7.99 10.67 -8.98 10.34 -10 10 C-6.7 6.7 -3.4 3.4 0 0 Z " fill="#EF9114" transform="translate(696,373)"/>
<path d="M0 0 C0.66 0 1.32 0 2 0 C2 2 2 2 0.69921875 3.39453125 C0.13847656 3.92433594 -0.42226563 4.45414062 -1 5 C-2.07340274 6.21965713 -3.1359228 7.44897574 -4.1875 8.6875 C-4.71730469 9.31011719 -5.24710938 9.93273437 -5.79296875 10.57421875 C-6.19128906 11.04472656 -6.58960938 11.51523437 -7 12 C-7.66 11.67 -8.32 11.34 -9 11 C-7.5489926 9.16086305 -6.08898341 7.3288247 -4.625 5.5 C-3.81289063 4.4790625 -3.00078125 3.458125 -2.1640625 2.40625 C-1.44992187 1.6121875 -0.73578125 0.818125 0 0 Z " fill="#ED9B29" transform="translate(730,336)"/>
<path d="M0 0 C0.66 0 1.32 0 2 0 C0.68938409 4.23429756 -0.94356259 8.07407404 -3 12 C-3.66 12 -4.32 12 -5 12 C-4.54738642 10.56068883 -4.08767021 9.12361001 -3.625 7.6875 C-3.24214844 6.48673828 -3.24214844 6.48673828 -2.8515625 5.26171875 C-2 3 -2 3 0 0 Z " fill="#424348" transform="translate(404,273)"/>
<path d="M0 0 C0.33 0 0.66 0 1 0 C1.82999277 4.61107097 2.27063164 8.44690328 1 13 C0.01 13.66 -0.98 14.32 -2 15 C-1.03644647 4.44191344 -1.03644647 4.44191344 0 0 Z " fill="#57565A" transform="translate(669,583)"/>
<path d="M0 0 C0 3.77910478 -0.99703962 4.46106101 -3.5 7.1875 C-4.47453125 8.26064453 -4.47453125 8.26064453 -5.46875 9.35546875 C-5.9740625 9.89816406 -6.479375 10.44085938 -7 11 C-7.33 10.01 -7.66 9.02 -8 8 C-5.36 5.36 -2.72 2.72 0 0 Z " fill="#F19519" transform="translate(680,388)"/>
<path d="M0 0 C3.63 0.66 7.26 1.32 11 2 C11 2.33 11 2.66 11 3 C7.97265625 3.24414062 7.97265625 3.24414062 4.9453125 3.48828125 C2.60480784 3.87393036 2.60480784 3.87393036 1 7 C0.67 4.69 0.34 2.38 0 0 Z " fill="#454752" transform="translate(390,584)"/>
<path d="M0 0 C0.33 0.99 0.66 1.98 1 3 C-0.65 4.65 -2.3 6.3 -4 8 C-4.99 7.67 -5.98 7.34 -7 7 C-4.69 4.69 -2.38 2.38 0 0 Z " fill="#EF951D" transform="translate(681,294)"/>
<path d="M0 0 C0.66 0.33 1.32 0.66 2 1 C-2.30769231 6.78461538 -2.30769231 6.78461538 -5.8125 7.875 C-6.8953125 7.936875 -6.8953125 7.936875 -8 8 C-5.33333333 5.33333333 -2.66666667 2.66666667 0 0 Z " fill="#ED9925" transform="translate(622,350)"/>
<path d="M0 0 C-1 3 -1 3 -3.3125 4.25 C-6.16597407 5.04631835 -7.24802325 4.8214856 -10 4 C-8.71086513 3.32845067 -7.41859796 2.66291141 -6.125 2 C-5.40570313 1.62875 -4.68640625 1.2575 -3.9453125 0.875 C-2 0 -2 0 0 0 Z " fill="#ED9622" transform="translate(509,429)"/>
<path d="M0 0 C0.66 0.33 1.32 0.66 2 1 C0.88121617 2.17262904 -0.24523051 3.33795138 -1.375 4.5 C-2.00148438 5.1496875 -2.62796875 5.799375 -3.2734375 6.46875 C-5 8 -5 8 -7 8 C-5.50902342 4.2047869 -3.24299151 2.38957269 0 0 Z " fill="#F9EECF" transform="translate(647,388)"/>
<path d="M0 0 C0.6875 1.6875 0.6875 1.6875 1 4 C-0.3125 6.75 -0.3125 6.75 -2 9 C-2.66 9 -3.32 9 -4 9 C-2.80100302 5.9168649 -1.52299523 2.93720508 0 0 Z " fill="#424448" transform="translate(652,637)"/>
<path d="M0 0 C0.99 0.33 1.98 0.66 3 1 C1.71034824 2.37562854 0.37310707 3.70766393 -1 5 C-1.66 5 -2.32 5 -3 5 C-3 5.66 -3 6.32 -3 7 C-3.66 6.67 -4.32 6.34 -5 6 C-3.35 4.02 -1.7 2.04 0 0 Z " fill="#F9E8C3" transform="translate(734,301)"/>
<path d="M0 0 C0.99 0 1.98 0 3 0 C2.6875 2.875 2.6875 2.875 2 6 C1.01 6.66 0.02 7.32 -1 8 C-0.67 5.36 -0.34 2.72 0 0 Z " fill="#505155" transform="translate(666,599)"/>
<path d="M0 0 C0.66 0 1.32 0 2 0 C1.375 1.875 1.375 1.875 0 4 C-3.125 5.25 -3.125 5.25 -6 6 C-4 4 -2 2 0 0 Z " fill="#EF961D" transform="translate(596,371)"/>
</svg>
